<svg id="Layer_1" height="512" viewBox="0 0 256 256" width="512" xmlns="http://www.w3.org/2000/svg"><g><g><g><path d="m40.5 66.858h175c4.971 0 9-4.029 9-9 0-4.971-4.029-9-9-9h-175c-4.971 0-9 4.029-9 9 0 4.971 4.029 9 9 9z" fill="#eaa97d"/></g></g><g><g><path d="m215.5 68.858h-175c-6.065 0-11-4.935-11-11s4.935-11 11-11h175c6.065 0 11 4.935 11 11s-4.935 11-11 11zm-175-18c-3.86 0-7 3.14-7 7s3.14 7 7 7h175c3.86 0 7-3.14 7-7s-3.14-7-7-7z" fill="#3762cc"/></g></g><g><g><g><path d="m161.937 53.01v38.17c0 7.65-6.202 13.852-13.852 13.852h-.693v27.189c0 2.023-1.64 3.663-3.663 3.663h-31.459c-2.023 0-3.663-1.64-3.663-3.663v-27.189h-.693c-7.65 0-13.852-6.202-13.852-13.852v-38.17z" fill="#f9cfcf"/></g></g><g><g><path d="m143.729 137.882h-31.459c-3.123 0-5.663-2.54-5.663-5.663v-25.242c-8.132-.667-14.544-7.498-14.544-15.799v-38.168c0-1.104.896-2 2-2h67.874c1.104 0 2 .896 2 2v38.169c0 8.301-6.413 15.132-14.544 15.799v25.242c0 3.122-2.541 5.662-5.664 5.662zm-47.666-82.872v36.169c0 6.535 5.317 11.852 11.852 11.852h.692c1.104 0 2 .896 2 2v27.188c0 .917.746 1.663 1.663 1.663h31.459c.917 0 1.663-.746 1.663-1.663v-27.188c0-1.104.896-2 2-2h.692c6.535 0 11.852-5.317 11.852-11.852v-36.169z" fill="#3762cc"/></g></g><g><g><path d="m149.586 78.559h7.734c2.55 0 4.617-2.067 4.617-4.617v-30.32c0-3.57-2.894-6.464-6.464-6.464h-5.887c-2.55 0-4.617 2.067-4.617 4.617v32.167c0 2.55 2.067 4.617 4.617 4.617z" fill="#f9cfcf"/></g></g><g><g><path d="m132.617 78.559h7.734c2.55 0 4.617-2.067 4.617-4.617v-32.168c0-2.55-2.067-4.617-4.617-4.617h-7.734c-2.55 0-4.617 2.067-4.617 4.617v32.167c0 2.551 2.067 4.618 4.617 4.618z" fill="#f9cfcf"/></g></g><g><g><path d="m115.649 78.559h7.734c2.55 0 4.617-2.067 4.617-4.617v-32.168c0-2.55-2.067-4.617-4.617-4.617h-7.734c-2.55 0-4.617 2.067-4.617 4.617v32.167c-.001 2.551 2.067 4.618 4.617 4.618z" fill="#f9cfcf"/></g></g><g><g><path d="m98.68 78.559h7.734c2.55 0 4.617-2.067 4.617-4.617v-32.168c0-2.55-2.067-4.617-4.617-4.617h-5.887c-3.57 0-6.464 2.894-6.464 6.464v30.32c0 2.551 2.067 4.618 4.617 4.618z" fill="#f9cfcf"/></g></g><g><g><path d="m157.32 80.559h-7.734c-3.649 0-6.617-2.968-6.617-6.617v-32.168c0-3.649 2.968-6.617 6.617-6.617h5.887c4.667 0 8.464 3.797 8.464 8.464v30.32c0 3.649-2.968 6.618-6.617 6.618zm-7.734-41.402c-1.443 0-2.617 1.174-2.617 2.617v32.167c0 1.443 1.174 2.617 2.617 2.617h7.734c1.443 0 2.617-1.174 2.617-2.617v-30.32c0-2.461-2.003-4.464-4.464-4.464z" fill="#3762cc"/></g></g><g><g><path d="m140.351 80.559h-7.734c-3.649 0-6.617-2.968-6.617-6.617v-32.168c0-3.649 2.968-6.617 6.617-6.617h7.734c3.649 0 6.618 2.968 6.618 6.617v32.167c0 3.649-2.969 6.618-6.618 6.618zm-7.734-41.402c-1.443 0-2.617 1.174-2.617 2.617v32.167c0 1.443 1.174 2.617 2.617 2.617h7.734c1.443 0 2.618-1.174 2.618-2.617v-32.167c0-1.443-1.174-2.617-2.618-2.617z" fill="#3762cc"/></g></g><g><g><path d="m123.383 80.559h-7.734c-3.649 0-6.618-2.968-6.618-6.617v-32.168c0-3.649 2.969-6.617 6.618-6.617h7.734c3.649 0 6.617 2.968 6.617 6.617v32.167c0 3.649-2.968 6.618-6.617 6.618zm-7.734-41.402c-1.443 0-2.618 1.174-2.618 2.617v32.167c0 1.443 1.174 2.617 2.618 2.617h7.734c1.443 0 2.617-1.174 2.617-2.617v-32.167c0-1.443-1.174-2.617-2.617-2.617z" fill="#3762cc"/></g></g><g><g><path d="m106.414 80.559h-7.734c-3.649 0-6.617-2.968-6.617-6.617v-30.32c0-4.667 3.797-8.464 8.464-8.464h5.887c3.649 0 6.617 2.968 6.617 6.617v32.167c0 3.648-2.968 6.617-6.617 6.617zm-5.887-41.402c-2.461 0-4.464 2.003-4.464 4.464v30.32c0 1.443 1.174 2.617 2.617 2.617h7.734c1.443 0 2.617-1.174 2.617-2.617v-32.167c0-1.443-1.174-2.617-2.617-2.617z" fill="#3762cc"/></g></g><path d="m132.812 100.256c0-7.386 4.57-13.695 11.032-16.283l-6.335-1.697c-5.609-1.502-9.509-6.585-9.509-12.392 0-2.097 1.7-3.796 3.796-3.796h23.048c3.917 0 7.093 3.176 7.093 7.093v9.529 8.469c0 7.65-6.202 13.852-13.852 13.852h-.693z" fill="#f9cfcf"/><g><g><path d="m148.085 107.031h-.692c-1.104 0-2-.896-2-2s.896-2 2-2h.692c6.535 0 11.852-5.317 11.852-11.852v-17.998c0-2.808-2.285-5.093-5.093-5.093h-23.048c-.99 0-1.796.806-1.796 1.796 0 4.893 3.301 9.194 8.027 10.46l6.335 1.697c.832.223 1.428.953 1.479 1.813s-.454 1.656-1.253 1.976c-5.938 2.377-9.776 8.04-9.776 14.425 0 1.104-.896 2-2 2s-2-.896-2-2c0-6.272 2.943-11.99 7.79-15.616l-1.61-.432c-6.472-1.733-10.992-7.623-10.992-14.323 0-3.196 2.6-5.796 5.796-5.796h23.048c5.014 0 9.093 4.079 9.093 9.093v17.998c0 8.741-7.111 15.852-15.852 15.852z" fill="#3762cc"/></g></g></g><g><g><g><path d="m83.114 146.191h-74c-.687 0-1.326-.353-1.692-.934-.366-.582-.409-1.31-.112-1.93l37-77.333c.333-.694 1.034-1.137 1.804-1.137s1.472.442 1.804 1.137l37 77.333c.296.62.254 1.348-.112 1.93-.367.582-1.005.934-1.692.934zm-70.826-4h67.652l-33.826-70.7z" fill="#3762cc"/></g></g><g><g><path d="m46.114 68.858c-1.104 0-2-.896-2-2v-18c0-1.104.896-2 2-2s2 .896 2 2v18c0 1.104-.896 2-2 2z" fill="#3762cc"/></g></g></g><g><g><path d="m87.614 144.191h-83c-.552 0-1 .448-1 1v1.525c0 23.472 19.028 42.5 42.5 42.5 23.472 0 42.5-19.028 42.5-42.5v-1.525c0-.552-.448-1-1-1z" fill="#eaa97d"/></g></g><g><g><g><path d="m246.886 146.191h-74c-.687 0-1.326-.353-1.692-.934-.366-.582-.409-1.31-.112-1.93l37-77.333c.333-.694 1.034-1.137 1.804-1.137s1.472.442 1.804 1.137l37 77.333c.296.62.254 1.348-.112 1.93s-1.005.934-1.692.934zm-70.826-4h67.652l-33.826-70.7z" fill="#3762cc"/></g></g><g><g><path d="m209.886 68.858c-1.104 0-2-.896-2-2v-18c0-1.104.896-2 2-2s2 .896 2 2v18c0 1.104-.895 2-2 2z" fill="#3762cc"/></g></g></g><g><g><path d="m251.386 144.191h-83c-.552 0-1 .448-1 1v1.525c0 23.472 19.028 42.5 42.5 42.5 23.472 0 42.5-19.028 42.5-42.5v-1.525c0-.552-.447-1-1-1z" fill="#eaa97d"/></g></g><g><g><path d="m101 148.359h54v-31.642c0-1.657-1.343-3-3-3h-48c-1.657 0-3 1.343-3 3z" fill="#e0ebfc"/></g></g><g><g><path d="m46.114 191.216c-24.538 0-44.5-19.962-44.5-44.5v-1.524c0-1.654 1.346-3 3-3h83c1.654 0 3 1.346 3 3v1.524c0 24.537-19.963 44.5-44.5 44.5zm-40.5-45.025v.524c0 22.332 18.168 40.5 40.5 40.5s40.5-18.168 40.5-40.5v-.524zm82 0h.01z" fill="#3762cc"/></g></g><g><g><path d="m209.887 191.216c-24.538 0-44.5-19.962-44.5-44.5v-1.524c0-1.654 1.346-3 3-3h83c1.654 0 3 1.346 3 3v1.524c-.001 24.537-19.963 44.5-44.5 44.5zm-40.501-45.025v.524c0 22.332 18.168 40.5 40.5 40.5s40.5-18.168 40.5-40.5v-.524zm82 0h.01z" fill="#3762cc"/></g></g><g><g><path d="m155 150.359h-54c-1.104 0-2-.896-2-2v-31.642c0-2.757 2.243-5 5-5h48c2.757 0 5 2.243 5 5v31.642c0 1.105-.896 2-2 2zm-52-4h50v-29.642c0-.551-.449-1-1-1h-48c-.551 0-1 .449-1 1z" fill="#3762cc"/></g></g><g><g><path d="m99 218.843h58c1.657 0 3-1.343 3-3v-88.348c0-1.657-1.343-3-3-3h-58c-1.657 0-3 1.343-3 3v88.348c0 1.657 1.343 3 3 3z" fill="#4671c6"/></g></g><g><g><path d="m157 220.843h-58c-2.757 0-5-2.243-5-5v-88.348c0-2.757 2.243-5 5-5h58c2.757 0 5 2.243 5 5v88.348c0 2.757-2.243 5-5 5zm-58-94.348c-.551 0-1 .449-1 1v88.348c0 .551.449 1 1 1h58c.551 0 1-.449 1-1v-88.348c0-.551-.449-1-1-1z" fill="#3762cc"/></g></g></g></svg>